<svg width="211" height="194" viewBox="0 0 211 194" fill="none" xmlns="http://www.w3.org/2000/svg">
<path d="M0 108.536C16.3004 145.657 57.388 172 105.5 172C127.756 172 148.508 166.361 166 156.628V180.72C148.871 189.088 128.009 194 105.5 194C47.234 194 0 161.093 0 120.5C0 119.327 0.0410885 118.16 0.119141 117H0V108.536ZM211 117H210.881C210.959 118.16 211 119.327 211 120.5C211 141.873 197.905 161.114 177 174.544V149.663C192.066 138.865 203.891 124.726 211 108.536V117ZM105.5 0C163.766 0 211 34.6979 211 77.5C211 120.302 163.766 155 105.5 155C47.234 155 0 120.302 0 77.5C0 34.6979 47.234 0 105.5 0ZM105.5 16C55.5182 16 15 43.5345 15 77.5C15 111.466 55.5182 139 105.5 139C155.482 139 196 111.466 196 77.5C196 43.5345 155.482 16 105.5 16ZM74 80C77.866 80 81 83.134 81 87V104C81 107.866 77.866 111 74 111C70.134 111 67 107.866 67 104V87C67 83.134 70.134 80 74 80ZM104 61C107.866 61 111 64.134 111 68V104C111 107.866 107.866 111 104 111C100.134 111 97 107.866 97 104V68C97 64.134 100.134 61 104 61ZM134 44C137.866 44 141 47.134 141 51V104C141 107.866 137.866 111 134 111C130.134 111 127 107.866 127 104V51C127 47.134 130.134 44 134 44Z" fill="currentColor"/>
</svg>
