<svg width="315" height="315" viewBox="0 0 315 315" fill="none" xmlns="http://www.w3.org/2000/svg">
<rect width="315" height="315" rx="74" fill="black"/>
<path d="M53 168.536C69.3004 205.657 110.388 232 158.5 232C180.756 232 201.508 226.361 219 216.628V240.72C201.871 249.088 181.009 254 158.5 254C100.234 254 53 221.093 53 180.5C53 179.327 53.0411 178.16 53.1191 177H53V168.536ZM264 177H263.881C263.959 178.16 264 179.327 264 180.5C264 201.873 250.905 221.114 230 234.544V209.663C245.066 198.865 256.891 184.726 264 168.536V177ZM158.5 60C216.766 60 264 94.6979 264 137.5C264 180.302 216.766 215 158.5 215C100.234 215 53 180.302 53 137.5C53 94.6979 100.234 60 158.5 60ZM158.5 76C108.518 76 68 103.534 68 137.5C68 171.466 108.518 199 158.5 199C208.482 199 249 171.466 249 137.5C249 103.534 208.482 76 158.5 76ZM127 140C130.866 140 134 143.134 134 147V164C134 167.866 130.866 171 127 171C123.134 171 120 167.866 120 164V147C120 143.134 123.134 140 127 140ZM157 121C160.866 121 164 124.134 164 128V164C164 167.866 160.866 171 157 171C153.134 171 150 167.866 150 164V128C150 124.134 153.134 121 157 121ZM187 104C190.866 104 194 107.134 194 111V164C194 167.866 190.866 171 187 171C183.134 171 180 167.866 180 164V111C180 107.134 183.134 104 187 104Z" fill="white"/>
</svg>
